<!DOCTYPE svg PUBLIC "-//W3C//DTD SVG 1.1//EN" "http://www.w3.org/Graphics/SVG/1.1/DTD/svg11.dtd">
<!-- Uploaded to: SVG Repo, www.svgrepo.com, Transformed by: SVG Repo Mixer Tools -->
<svg height="800px" width="800px" version="1.1" id="Layer_1" xmlns="http://www.w3.org/2000/svg" xmlns:xlink="http://www.w3.org/1999/xlink" viewBox="0 0 512 512" xml:space="preserve" fill="#000000">
<g id="SVGRepo_bgCarrier" stroke-width="0"/>
<g id="SVGRepo_tracerCarrier" stroke-linecap="round" stroke-linejoin="round"/>
<g id="SVGRepo_iconCarrier"> <path style="fill:#FF4328;" d="M154.015,406.588h69.398v96.807l-34.685-15.408l-34.713,15.408V406.588L154.015,406.588z"/> <path style="fill:#8c8103;" d="M140.37,426.459H65.076c-5.941,0-10.756-4.816-10.756-10.756V19.361 c0-5.941,4.816-10.756,10.756-10.756h75.294c5.941,0,10.756,4.816,10.756,10.756v396.342 C151.126,421.644,146.31,426.459,140.37,426.459z"/> <path style="fill:#ffae00;" d="M107.829,8.605h339.096c5.941,0,10.756,4.816,10.756,10.756v396.342 c0,5.941-4.816,10.756-10.756,10.756H107.829V8.605L107.829,8.605z"/> <path style="fill:#CAEEC5;" d="M242.18,167.454c3.481-15.416,17.317-26.934,33.853-26.934c16.538,0,30.378,11.518,33.853,26.934 c5.41-3.468,11.852-5.482,18.768-5.482c19.162,0,34.699,15.462,34.699,34.535c0,19.072-15.536,34.535-34.699,34.535 c-5.354,0-10.431-1.21-14.959-3.369v66.871h-75.32v-66.871c-4.529,2.159-9.603,3.369-14.964,3.369 c-19.162,0-34.699-15.463-34.699-34.535c0-19.073,15.536-34.535,34.699-34.535C230.325,161.972,236.77,163.986,242.18,167.454 L242.18,167.454z"/> <path style="fill:#97BAA8;" d="M313.697,228.499v43.229v22.816h-75.32V280.58v-52.081v-1.036h75.32V228.499z"/> <path d="M446.924,0H140.37h-32.541H65.076C54.4,0,45.714,8.686,45.714,19.361v396.342c0,10.677,8.686,19.361,19.361,19.361h42.753 h32.541h5.04v68.331c0,2.912,1.473,5.627,3.914,7.214c1.418,0.922,3.05,1.391,4.691,1.391c1.185,0,2.374-0.245,3.49-0.741 l31.22-13.858l31.192,13.857c2.662,1.183,5.741,0.939,8.183-0.648c2.443-1.589,3.915-4.303,3.915-7.215v-68.331h214.908 c10.676,0,19.361-8.685,19.361-19.361V19.361C466.286,8.686,457.6,0,446.924,0z M62.924,415.703V19.361 c0-1.186,0.965-2.151,2.151-2.151h34.148v400.644H65.076C63.889,417.854,62.924,416.888,62.924,415.703z M214.809,490.156 l-22.586-10.033c-2.223-0.988-4.761-0.99-6.985-0.001l-22.616,10.039v-55.097h52.187V490.156z M449.076,415.703 c0,1.186-0.965,2.151-2.151,2.151H116.434V17.21h330.491c1.186,0,2.151,0.965,2.151,2.151V415.703z M328.656,153.367 c-4.784,0-9.491,0.781-13.954,2.293c-7.248-14.205-22.176-23.743-38.667-23.743c-16.789,0-31.528,9.37-38.713,23.728 c-4.449-1.502-9.14-2.277-13.908-2.277c-23.878,0-43.304,19.353-43.304,43.14c0,23.788,19.426,43.14,43.304,43.14 c2.148,0,4.27-0.154,6.359-0.458v55.354c0,4.752,3.853,8.605,8.605,8.605h75.32c4.752,0,8.605-3.853,8.605-8.605V239.19 c2.087,0.304,4.207,0.458,6.354,0.458c23.878,0,43.304-19.353,43.304-43.14C371.959,172.719,352.534,153.367,328.656,153.367z M328.656,222.438c-3.947,0-7.733-0.852-11.254-2.531c-2.665-1.271-5.798-1.086-8.295,0.489c-2.499,1.577-4.013,4.324-4.013,7.278 v58.265h-58.11v-58.265c0-2.954-1.514-5.701-4.012-7.278c-2.498-1.575-5.629-1.762-8.295-0.49c-3.525,1.68-7.313,2.532-11.262,2.532 c-14.388,0-26.094-11.632-26.094-25.93c0-14.298,11.706-25.93,26.094-25.93c5.033,0,9.916,1.425,14.123,4.123 c2.361,1.513,5.314,1.778,7.91,0.716c2.595-1.065,4.509-3.329,5.128-6.067c2.646-11.719,13.353-20.224,25.459-20.224 c12.111,0,22.818,8.504,25.459,20.222c0.617,2.737,2.531,5.002,5.128,6.069c2.597,1.064,5.549,0.797,7.912-0.717 c4.207-2.697,9.09-4.122,14.123-4.122c14.388,0,26.094,11.633,26.094,25.93C354.749,210.805,343.043,222.438,328.656,222.438z"/> </g>
</svg>